<svg width="64" height="32" id="Capa_2" data-name="Capa 2" xmlns="http://www.w3.org/2000/svg" viewBox="0 0 155.12 674.8">
  <defs>
    <style>
      .cls-1 {
        fill: #fcfcfd;
      }

      .cls-2 {
        fill: #fcfdfd;
      }

      .cls-3 {
        fill: #fafafb;
      }

      .cls-4 {
        fill: #f8f8fa;
      }
    </style>
  </defs>
  <g id="Layer_1" data-name="Layer 1">
    <path class="cls-2" d="m57.86,463.1c-6.83-.05-13.15-.04-19.48-.17C16.78,462.49.09,445.48.04,423.8c-.05-25.31-.06-50.62,0-75.93.05-22.08,17.23-39.07,39.4-39.08,25.14-.01,50.29-.03,75.43-.02,22.07,0,39.14,15.68,39.63,37.68.6,26.46.59,52.95.09,79.42-.39,20.73-17.94,36.99-38.8,37.09-19.15.09-38.29.1-57.94.15Z"/>
    <path class="cls-2" d="m155.06,202.32c0,16.66.04,32.83-.01,48.99-.08,22.44-17.08,39.39-39.61,39.43-25.16.05-50.32.04-75.49-.01-22.48-.04-39.42-16.93-39.5-39.51-.1-24.99-.1-49.99,0-74.99.08-22.22,16.05-38.85,38.28-39.93,5.14-.25,10.3-.04,15.71-.04-.38,3.08-1.21,5.84-.96,8.51.69,7.41,6.41,12.66,14.09,12.96,6.65.26,13.34.28,19.99,0,10.24-.42,16.21-8.69,13.75-18.64-.19-.77-.37-1.54-.63-2.61,14.37-.78,28.31-1.2,40.05,8.77,8.98,7.63,13.99,17.25,14.27,29.06.22,9.16.05,18.33.05,27.99m-108.04-24.87c-8.06-2.34-14.91-.32-20.09,6.2-4.93,6.2-5.44,13.17-1.64,20.1,3.8,6.93,9.93,10.02,17.85,9.45,7.84-.56,15.02-7.19,16.4-15.13,1.49-8.53-2.84-16.04-12.52-20.61m70.63-.59c-14.89-1.47-25.42,10.53-20.93,23.87,2.84,8.43,10.8,13.4,19.88,12.4,8.15-.9,14.89-7.99,15.94-16.77.98-8.18-4.94-16.31-14.89-19.5Z"/>
    <path class="cls-1" d="m72.84,674.58c-7.7-2.15-12.35-6.8-14.54-14.14-16.5-55.41-33.08-110.8-49.58-166.21-2.28-7.66,1.97-13.21,9.94-13.34,1.67-.03,3.33-.03,5-.02,7.54.02,11.42,2.93,13.35,10.16,2.52,9.49,5.08,18.97,7.39,28.51.8,3.3,2.23,4.44,5.77,4.4,18.32-.21,36.65-.23,54.98,0,3.79.05,5.22-1.27,6.05-4.74,2.25-9.37,4.71-18.7,7.28-28,2.7-9.76,16.26-14.33,24.34-8.18,4.1,3.12,4.53,7.34,3.07,12.11-5.3,17.29-10.48,34.61-15.7,51.92-11.32,37.55-22.61,75.1-33.98,112.63-3.52,11.59-10.83,16.25-23.35,14.91Z"/>
    <path class="cls-4" d="m64.62,112.32c0-15.31-.02-30.11-.02-44.92,0-8.89,4.86-14.13,13.1-14.19,8.08-.05,13.1,5.27,13.13,14.19.05,21.46.04,42.92,0,64.39-.02,8.98-4.88,14.13-13.12,14.12-8.32,0-13.03-5.07-13.08-14.12-.03-6.32,0-12.64,0-19.47Z"/>
    <path class="cls-3" d="m89.4,38.02c-8.23,4.83-16.29,5.05-23.73-.39-6.98-5.1-10.06-12.25-8.18-21.02,1.86-8.7,7.39-13.95,15.86-16.06,9.07-2.25,18.67,2.5,22.9,11.04,4.6,9.3,2.24,18.73-6.85,26.42Z"/>
  </g>
</svg>